<?xml version="1.0" encoding="UTF-8"?>
<svg id="Layer_1" data-name="Layer 1" xmlns="http://www.w3.org/2000/svg" viewBox="0 0 298.73 121.36">
  <path d="M283.16,52.54c-29.28-4.27-53.99,3-68.02,8.81l44.5-47.59c3.11-3.15,6.13-6.37,8.98-9.61.9-1.03.82-2.59-.2-3.5-1.01-.92-2.57-.85-3.51.14l-8.92,9.54c-28.39,28.74-65.35,52.81-65.76,53.08-.02.02-.04.04-.06.05-11.23,6.52-22.73,9.08-26.15,6.66-.38-.27-1.54-1.09-.52-4.53.32-1.08.87-2.19,1.61-3.33,13.79-.14,30-5.41,36.41-12.03,2.34-2.41,3.43-4.95,3.25-7.55-.18-2.7-2.16-4.51-5.28-4.86-8.5-.93-28.06,8.65-36.85,19.4-6.55-.2-12.97,1.16-18.48,2.98,19.03-15.33,30.77-19.45,30.93-19.51,1.31-.44,2.01-1.85,1.58-3.16-.44-1.31-1.86-2.02-3.16-1.58-.85.28-18.11,6.26-45.08,31.23-12.32,8.84-27.03,12.52-31.05,9.67-.41-.29-1.67-1.19-.61-4.79.32-1.08.87-2.19,1.61-3.33,13.79-.14,30-5.41,36.41-12.03,2.34-2.41,3.43-4.95,3.26-7.55-.18-2.7-2.16-4.51-5.28-4.86-8.47-.91-28.06,8.65-36.85,19.4-4.24-.13-8.22.38-11.85,1.23,24.8-19.83,53.1-43.59,65.25-53.85,1.11-.94,1.3-2.58.43-3.75-.88-1.17-2.51-1.45-3.73-.64-41.57,27.6-98.62,24.16-99.19,24.12-1.36-.1-2.57.95-2.66,2.33s.95,2.57,2.33,2.66c2.05.14,43.78,2.68,82.71-14.34C90.39,53.91,50.61,85.95,40.42,90.99c-10.92,5.4-22.17,6.31-28.68,2.31-4.42-2.72-6.69-7.61-6.75-14.53-.01-1.37-1.13-2.48-2.5-2.48h-.02c-1.38.01-2.49,1.14-2.48,2.52.08,10.91,5.01,16.22,9.13,18.75,3.51,2.16,7.93,3.23,12.85,3.23,6.36,0,13.55-1.79,20.67-5.31,4.43-2.19,13.54-8.75,24.74-17.39,0,0,.01,0,.02-.01.12-.09,10.97-8.62,25.31-9.33-.29.64-.53,1.28-.72,1.92-1.81,6.12.8,9.07,2.51,10.29,1.65,1.17,4.16,1.78,7.27,1.78,3.86,0,8.64-.95,13.85-2.92-.92.96-1.85,1.93-2.79,2.94-33.79,36.07-49.67,33.58-49.76,33.57-1.35-.32-2.69.52-3.01,1.86-.32,1.34.52,2.69,1.86,3.01.17.04.83.17,1.97.17,2.23,0,6.3-.5,12.29-3.16,11.69-5.18,25.24-15.96,40.29-32.03,4.97-5.31,9.71-10.01,14.19-14.2,1.86-1.16,14.88-9.02,28.76-9.71-.29.64-.53,1.28-.72,1.92-1.77,5.98.76,8.85,2.43,10.03,1.7,1.21,4.06,1.75,6.83,1.75,8.66,0,21.36-5.29,30.84-12.13.2-.15.37-.32.51-.51,5.28-3.65,13.4-9.43,22.71-16.65l-19.8,21.18c-.85.91-.9,2.32-.11,3.29.49.6,1.21.92,1.94.92.45,0,.9-.12,1.3-.37.34-.21,34.09-20.46,77.08-14.19,1.36.2,2.64-.75,2.83-2.11.2-1.37-.75-2.63-2.11-2.83ZM192.6,43.81c2.69-.82,4.51-1.05,5.66-1.05.86,0,1.34.13,1.53.25,0,0,0,0,0,.02.08,1.12-.55,2.38-1.86,3.73-4.85,5.01-16.94,9.23-28.24,10.27,6.07-5.63,15.3-10.9,22.91-13.22ZM125.88,50.29c2.68-.82,4.51-1.05,5.66-1.05.86,0,1.34.13,1.53.25,0,0,0,0,0,.02.08,1.12-.55,2.38-1.86,3.73-4.85,5.01-16.94,9.23-28.24,10.27,6.07-5.63,15.3-10.9,22.91-13.22Z"/>
  <path d="M297.29,57.04c-2.43-1.14-5.15-1.77-5.27-1.8-1.35-.31-2.68.54-2.99,1.88-.31,1.35.54,2.69,1.88,2.99.02,0,2.32.54,4.25,1.44.34.16.71.24,1.06.24.94,0,1.84-.53,2.26-1.43.59-1.25.05-2.74-1.19-3.33Z"/>
</svg>